<svg xmlns="http://www.w3.org/2000/svg" width="32" height="32" viewBox="0 0 32 32">
    <defs>
        <style>
            .cls-1{fill:#fff}.cls-2{fill:#505050}
        </style>
    </defs>
    <g id="icon_cart" transform="translate(-250 -13)">
        <path id="사각형_2193" d="M0 0h32v32H0z" class="cls-1" data-name="사각형 2193" transform="translate(250 13)"/>
        <path id="패스_10633" d="M346.07 299.039a.681.681 0 0 0-.812-.5l-3.943.868a.668.668 0 0 0-.522.554l-.467 3.273a2.14 2.14 0 0 0-1.011-.265h-17.122a2.131 2.131 0 0 0-1.578.695 2.015 2.015 0 0 0-.513 1.6l.209 1.909.5 4.52.3 2.706a2.091 2.091 0 0 0 2.09 1.8h16.363a.662.662 0 1 1 0 1.323h-16.292a.67.67 0 0 0-.678.662.641.641 0 0 0 .136.377 2.434 2.434 0 0 0-.494 1.461 2.564 2.564 0 0 0 5.127 0 2.426 2.426 0 0 0-.315-1.176h7.534a2.413 2.413 0 0 0-.316 1.176 2.564 2.564 0 0 0 5.125 0 2.412 2.412 0 0 0-.315-1.176h.48a2.013 2.013 0 0 0 2.035-1.985 1.986 1.986 0 0 0-1.381-1.87 2.055 2.055 0 0 0 .2-.6l.294-2.7.5-4.52.208-1.9.668-4.682 3.486-.767a.662.662 0 0 0 .504-.783zm-20.065 20.984a1.207 1.207 0 1 1-1.206-1.176 1.193 1.193 0 0 1 1.206 1.176zm12.028 0a1.206 1.206 0 1 1-1.205-1.176 1.192 1.192 0 0 1 1.205 1.176zm-16.292-12.257h2.871l.1.791.289 2.407h-2.905zm9.69-3.473h4.644l-.229 2.15h-4.414zm-1.357 6.671h-3.713l-.094-.791-.289-2.407h4.1zm-3.553 1.323h3.553v2.591h-3.242zm4.91-4.521h4.269l-.341 3.2h-3.933zm5.638 0h2.7l-.35 3.2h-2.687zm2.8-3.226a.714.714 0 0 1 .182.586l-.145 1.316h-2.7l.229-2.15h1.874a.748.748 0 0 1 .566.249zm-9.8-.247v2.15h-4.256l-.258-2.15zm-8.443.247a.749.749 0 0 1 .562-.247h2l.259 2.15H321.6l-.147-1.328a.71.71 0 0 1 .179-.574zm1.562 10.337a.739.739 0 0 1-.741-.627l-.216-1.963h2.919l.311 2.591zm8.238-2.591h3.791l-.275 2.591h-3.516zm4.88 2.591l.277-2.591h2.683l-.214 1.952a.742.742 0 0 1-.742.639z" class="cls-2" data-name="패스 10633" transform="translate(-67.087 -281.523)"/>
    </g>
</svg>
